<?xml version="1.0" standalone="no"?>
<!DOCTYPE svg PUBLIC "-//W3C//DTD SVG 20010904//EN"
 "http://www.w3.org/TR/2001/REC-SVG-20010904/DTD/svg10.dtd">
<svg version="1.0" xmlns="http://www.w3.org/2000/svg"
 width="1094.000000pt" height="1094.000000pt" viewBox="0 0 1094.000000 1094.000000"
 preserveAspectRatio="xMidYMid meet">
<metadata>
Created by potrace 1.14, written by Peter Selinger 2001-2017
</metadata>
<g transform="translate(0.000000,1094.000000) scale(0.100000,-0.100000)"
fill="#000000" stroke="none">
<path d="M4677 7924 c-1 -1 -56 -5 -122 -8 -66 -4 -136 -9 -155 -11 -19 -2
-66 -6 -105 -10 -101 -9 -146 -14 -175 -19 -14 -3 -50 -8 -80 -11 -98 -11
-421 -75 -589 -116 -1016 -249 -2012 -771 -2881 -1508 -184 -156 -449 -409
-538 -512 l-31 -36 27 -14 c15 -8 47 -25 72 -40 46 -26 156 -85 335 -180 308
-162 927 -465 1350 -659 110 -50 297 -135 415 -187 118 -52 233 -103 255 -113
22 -10 85 -37 140 -60 55 -23 114 -48 130 -55 17 -8 57 -25 90 -38 33 -14 158
-65 277 -115 595 -249 1353 -536 1598 -605 128 -37 240 -66 275 -73 11 -2 61
-13 110 -24 50 -11 104 -22 120 -25 17 -3 68 -12 115 -20 47 -8 101 -17 120
-19 19 -3 49 -7 65 -10 17 -2 55 -8 85 -11 97 -12 124 -15 160 -20 19 -2 62
-6 95 -9 33 -3 87 -8 120 -11 384 -35 1087 -35 1485 -1 36 3 99 8 140 11 41 3
95 7 120 10 25 3 70 7 100 10 49 4 104 11 180 20 14 2 54 7 90 10 36 4 73 9
84 11 10 2 44 6 75 10 31 3 65 8 76 10 11 3 38 7 60 10 22 2 51 7 65 9 14 2
97 16 185 30 88 14 192 32 230 40 39 8 86 17 105 20 29 5 102 19 305 61 64 13
133 29 265 61 58 14 114 27 125 29 11 2 130 33 265 69 135 36 252 67 260 69
29 8 186 55 285 86 55 17 123 38 150 46 28 8 113 36 190 62 l140 49 3 1051 2
1051 -42 11 c-469 118 -879 248 -1553 494 -99 37 -189 70 -200 76 -11 5 -65
25 -120 45 -55 20 -127 47 -160 60 -33 13 -98 37 -145 54 -47 18 -94 36 -105
41 -17 7 -180 68 -570 212 -256 94 -777 270 -960 323 -49 15 -135 40 -190 56
-99 30 -387 106 -435 115 -13 3 -60 14 -105 24 -45 10 -92 21 -105 24 -101 20
-139 27 -165 32 -16 2 -37 7 -45 9 -8 2 -31 7 -50 10 -19 3 -60 10 -90 15 -30
5 -68 11 -85 14 -118 18 -155 22 -245 31 -30 3 -71 8 -90 10 -124 17 -335 28
-573 29 -125 1 -229 1 -230 0z"/>
</g>
</svg>
